<?xml version="1.0" encoding="utf-8"?>
<!-- Generator: Adobe Illustrator 23.1.1, SVG Export Plug-In . SVG Version: 6.00 Build 0)  -->
<svg version="1.1" id="GB" xmlns="http://www.w3.org/2000/svg" xmlns:xlink="http://www.w3.org/1999/xlink" x="0px" y="0px"
	 viewBox="0 0 146.2 119.2" style="enable-background:new 0 0 146.2 119.2;" xml:space="preserve">
<style type="text/css">
	.st0{fill:#FFFFFF;}
</style>
<g>
	<path class="st0" d="M0,86.3V33.2C0,15,15.1,0,33.2,0s33.2,15.1,33.2,33.2V35H52.5v-1.8c0-10.8-8.6-19.3-19.3-19.3
		s-19.3,8.6-19.3,19.3v53.1c0,10.8,8.6,19.4,19.3,19.4s19.3-8.6,19.3-19.4V66.6H32.9V52.8H66V86c0,18.4-15.1,33.2-33.2,33.2
		S0,104.4,0,86.3z"/>
	<path class="st0" d="M79.6,1.8h33.8c17.8,0,32.9,14.7,32.9,32.9c0,11.4-6.8,20.3-14.4,25.5c7.7,5.2,14.4,13.8,14.4,25.5
		c0,17.8-14.7,32.9-32.9,32.9H79.6V1.8z M113.3,52.8c10.4,0,18.7-8.6,18.7-18.4c0-10.4-8.6-18.7-18.7-18.7h-20v37.5L113.3,52.8
		L113.3,52.8z M113.3,103.8c10.4,0,18.7-8.6,18.7-18.7c0-10.4-8.6-18.4-18.7-18.4h-20v37.2h20V103.8z"/>
</g>
</svg>
