<svg width="200" height="44" viewBox="0 0 200 44" fill="none" xmlns="http://www.w3.org/2000/svg">
<path d="M0 43.9188L19.6744 7.60861L37.0502 0L17.3485 36.3102L0 43.9188Z" fill="url(#paint0_linear)"/>
<path d="M19.6191 35.6333L34.5596 8.04187L43.097 16.3545L28.3207 44L19.6191 35.6333Z" fill="url(#paint1_linear)"/>
<path d="M44.7401 17.1667L55.7949 21.1741L50.2675 31.2467L36.8594 31.7071L44.7401 17.1667Z" fill="url(#paint2_linear)"/>
<path d="M76.5248 34.5923H69.5645V15.159H76.5765C78.543 15.159 80.2507 15.5431 81.6739 16.3112C83.097 17.0793 84.2096 18.2058 84.96 19.6397C85.7362 21.0991 86.0984 22.8145 86.0984 24.8372C86.0984 26.8599 85.7103 28.601 84.9341 30.0604C84.1578 31.5198 83.0711 32.6208 81.6221 33.4145C80.2249 34.2082 78.5171 34.5923 76.5248 34.5923ZM73.7044 31.0589H76.3436C78.1808 31.0589 79.578 30.5725 80.5354 29.5739C81.4927 28.601 81.9585 27.0135 81.9585 24.8372C81.9585 22.6865 81.4927 21.1247 80.5354 20.1261C79.578 19.1532 78.1808 18.6667 76.3436 18.6667H73.7044V31.0589Z" fill="#FFFFFF"/>
<path d="M89.2024 34.5923H84.752L91.5312 15.1846H96.8872L103.641 34.5923H99.1901L97.7411 30.1628H90.6514L89.2024 34.5923ZM91.7123 26.9624H96.7061L94.2997 19.6141H94.1445L91.7123 26.9624Z" fill="#FFFFFF"/>
<path d="M120.668 24.8885C120.668 27.0136 120.254 28.8058 119.452 30.2909C118.65 31.7759 117.537 32.9024 116.166 33.6962C114.769 34.4643 113.216 34.8739 111.482 34.8739C109.749 34.8739 108.17 34.4899 106.799 33.6962C105.402 32.9024 104.315 31.7759 103.513 30.2909C102.711 28.8058 102.297 27.0136 102.297 24.9141C102.297 22.7889 102.711 20.9967 103.513 19.5117C104.315 18.0266 105.402 16.9001 106.799 16.1064C108.196 15.3382 109.749 14.9286 111.482 14.9286C113.216 14.9286 114.769 15.3126 116.166 16.1064C117.563 16.8745 118.65 18.0266 119.452 19.5117C120.28 20.9455 120.668 22.7633 120.668 24.8885ZM116.476 24.8885C116.476 22.8402 116.011 21.2527 115.105 20.1774C114.199 19.102 112.983 18.5387 111.482 18.5387C109.982 18.5387 108.766 19.0764 107.86 20.1774C106.954 21.2783 106.489 22.8402 106.489 24.8885C106.489 26.9368 106.954 28.5242 107.86 29.5996C108.766 30.6749 109.982 31.2382 111.482 31.2382C112.983 31.2382 114.199 30.7005 115.105 29.5996C116.011 28.4986 116.476 26.9368 116.476 24.8885Z" fill="#FFFFFF"/>
<path d="M126.23 15.159H131.354L136.761 28.2169H136.994L142.402 15.159H147.5V34.5923H143.463V21.944H143.308L138.236 34.4899H135.494L130.422 21.8928H130.267V34.5923H126.23V15.159Z" fill="#FFFFFF"/>
<path d="M153.529 34.8483C152.132 34.8483 150.967 34.4899 150.036 33.7474C149.104 33.0305 148.639 31.9295 148.639 30.4957C148.639 29.4203 148.897 28.5498 149.415 27.9353C149.932 27.3208 150.605 26.8599 151.459 26.5783C152.287 26.2967 153.193 26.0918 154.176 26.015C155.444 25.887 156.375 25.759 156.919 25.6054C157.462 25.4517 157.747 25.1701 157.747 24.6836V24.6324C157.747 24.0435 157.565 23.5571 157.177 23.2498C156.789 22.917 156.272 22.7633 155.573 22.7633C154.849 22.7633 154.253 22.917 153.814 23.2498C153.374 23.5571 153.089 23.9667 152.96 24.4532L149.182 24.1459C149.467 22.8145 150.165 21.7648 151.278 20.9967C152.39 20.2286 153.839 19.8189 155.599 19.8189C156.686 19.8189 157.721 19.9981 158.652 20.331C159.61 20.6638 160.36 21.2015 160.955 21.9184C161.55 22.6353 161.835 23.5827 161.835 24.7348V34.5923H157.954V32.5696H157.85C157.488 33.2353 156.97 33.7986 156.246 34.2338C155.521 34.6435 154.616 34.8483 153.529 34.8483ZM154.693 32.0831C155.599 32.0831 156.323 31.8271 156.893 31.315C157.462 30.8029 157.747 30.1628 157.747 29.3947V27.8585C157.591 27.9609 157.333 28.0633 156.996 28.1401C156.66 28.2169 156.298 28.2938 155.935 28.345C155.547 28.3962 155.211 28.4474 154.926 28.4986C154.202 28.601 153.632 28.8058 153.193 29.0875C152.753 29.3947 152.546 29.83 152.546 30.3933C152.546 30.9565 152.753 31.3662 153.167 31.6479C153.555 31.9295 154.072 32.0831 154.693 32.0831Z" fill="#FFFFFF"/>
<path d="M163.387 34.5923V15.159H167.475V25.5285H167.708L172.417 19.9981H177.1L171.641 26.2966L177.385 34.5667H172.598L168.562 28.7034L167.449 29.958V34.5923H163.387Z" fill="#FFFFFF"/>
<path d="M183.285 34.874C181.784 34.874 180.491 34.5667 179.378 33.9522C178.291 33.3377 177.437 32.4672 176.868 31.3662C176.273 30.2397 175.988 28.9083 175.988 27.3721C175.988 25.887 176.273 24.5556 176.868 23.4291C177.463 22.3025 178.291 21.4064 179.352 20.7919C180.413 20.1518 181.681 19.8445 183.13 19.8445C184.423 19.8445 185.588 20.1262 186.649 20.6639C187.684 21.2015 188.512 22.0209 189.133 23.1218C189.754 24.2228 190.064 25.5798 190.064 27.244V28.345H180.051C180.051 29.4204 180.361 30.2909 180.956 30.9054C181.551 31.5199 182.379 31.8527 183.388 31.8527C184.061 31.8527 184.656 31.6991 185.148 31.4174C185.64 31.1358 186.002 30.7005 186.209 30.1629L189.987 30.4189C189.702 31.7759 188.977 32.8513 187.813 33.6706C186.623 34.4643 185.122 34.874 183.285 34.874ZM180.025 25.8358H186.209C186.209 24.9653 185.924 24.2484 185.355 23.6851C184.786 23.1218 184.087 22.8402 183.181 22.8402C182.276 22.8402 181.525 23.1218 180.956 23.7107C180.387 24.2996 180.077 25.0165 180.025 25.8358Z" fill="#FFFFFF"/>
<path d="M191.072 34.5923V20.0237H195.031V22.5585H195.186C195.445 21.6624 195.911 20.9711 196.532 20.5102C197.153 20.0493 197.903 19.8189 198.705 19.8189C199.171 19.8189 199.585 19.8701 199.999 19.9725V23.5571C199.818 23.5059 199.533 23.4546 199.197 23.4034C198.861 23.3522 198.55 23.3522 198.265 23.3522C197.36 23.3522 196.609 23.6339 196.04 24.1972C195.445 24.7604 195.16 25.4773 195.16 26.3735V34.5923H191.072Z" fill="#FFFFFF"/>
<defs>
<linearGradient id="paint0_linear" x1="0" y1="21.9594" x2="37.0502" y2="21.9594" gradientUnits="userSpaceOnUse">
<stop stop-color="#4086FF"/>
<stop offset="1" stop-color="#48D4FF"/>
</linearGradient>
<linearGradient id="paint1_linear" x1="19.6191" y1="26.0209" x2="43.097" y2="26.0209" gradientUnits="userSpaceOnUse">
<stop stop-color="#4086FF"/>
<stop offset="1" stop-color="#48D4FF"/>
</linearGradient>
<linearGradient id="paint2_linear" x1="36.8594" y1="24.4369" x2="55.7949" y2="24.4369" gradientUnits="userSpaceOnUse">
<stop stop-color="#4086FF"/>
<stop offset="1" stop-color="#48D4FF"/>
</linearGradient>
</defs>
</svg>