<svg width="21" height="24" viewBox="0 0 21 24" fill="none" xmlns="http://www.w3.org/2000/svg">
<path d="M13.5469 10.4531C13.7969 10.7031 13.9219 11.0156 13.9219 11.3906C13.9219 11.7656 13.7969 12.0938 13.5469 12.375C13.3281 12.625 13.0469 12.75 12.7031 12.75C12.4844 12.75 12.2812 12.6875 12.0938 12.5625C11.9062 12.4375 11.75 12.2812 11.625 12.0938C11.5312 11.875 11.4844 11.6406 11.4844 11.3906C11.4844 11.2031 11.5156 11.0312 11.5781 10.875C11.6406 10.7188 11.7188 10.5781 11.8125 10.4531C11.9375 10.3281 12.0781 10.2344 12.2344 10.1719C12.3906 10.1094 12.5469 10.0781 12.7031 10.0781C13.0469 10.0781 13.3281 10.2031 13.5469 10.4531ZM7.45312 10.4531C7.70312 10.2031 8 10.0781 8.34375 10.0781C8.6875 10.0781 8.96875 10.2031 9.1875 10.4531C9.4375 10.7031 9.5625 11.0156 9.5625 11.3906C9.5625 11.7656 9.4375 12.0938 9.1875 12.375C8.96875 12.625 8.6875 12.75 8.34375 12.75C8 12.75 7.70312 12.625 7.45312 12.375C7.23438 12.0938 7.125 11.7656 7.125 11.3906C7.125 11.0156 7.23438 10.7031 7.45312 10.4531ZM21 2.48438V24C19.1875 22.4062 17.3281 20.7188 15.4219 18.9375L16.0781 21.1875H2.4375C1.78125 21.1875 1.20312 20.9531 0.703125 20.4844C0.234375 19.9844 0 19.3906 0 18.7031V2.48438C0 1.79688 0.234375 1.21875 0.703125 0.75C1.20312 0.25 1.78125 0 2.4375 0H18.5625C19.2188 0 19.7812 0.25 20.25 0.75C20.75 1.21875 21 1.79688 21 2.48438ZM17.5781 13.8281C17.5781 12.7031 17.4375 11.5625 17.1562 10.4062C16.875 9.21875 16.5781 8.32812 16.2656 7.73438L15.8438 6.84375C15.5312 6.59375 15.1875 6.39062 14.8125 6.23438C14.4688 6.04688 14.1562 5.92188 13.875 5.85938C13.625 5.76562 13.3906 5.70312 13.1719 5.67188C12.9531 5.60938 12.7812 5.57812 12.6562 5.57812H12.4688L12.3281 5.76562C12.9219 5.95312 13.4688 6.1875 13.9688 6.46875C14.4688 6.71875 14.8125 6.92188 15 7.07812L15.2812 7.3125C13.9062 6.53125 12.4062 6.125 10.7812 6.09375C9.15625 6.0625 7.67188 6.34375 6.32812 6.9375L5.625 7.3125C6.28125 6.6875 7.32812 6.15625 8.76562 5.71875L8.67188 5.57812C7.57812 5.57812 6.45312 6 5.29688 6.84375C5.17188 7.09375 5.01562 7.42188 4.82812 7.82812C4.64062 8.23438 4.375 9.0625 4.03125 10.3125C3.71875 11.5312 3.5625 12.7031 3.5625 13.8281C3.625 13.9844 3.73438 14.1562 3.89062 14.3438C4.07812 14.5312 4.48438 14.7969 5.10938 15.1406C5.73438 15.4844 6.4375 15.6562 7.21875 15.6562C7.53125 15.3125 7.79688 14.9844 8.01562 14.6719C7.57812 14.5469 7.17188 14.375 6.79688 14.1562C6.45312 13.9062 6.21875 13.6875 6.09375 13.5L5.90625 13.2656C5.96875 13.2969 6.03125 13.3438 6.09375 13.4062C6.1875 13.4375 6.26562 13.4688 6.32812 13.5C6.39062 13.5312 6.42188 13.5469 6.42188 13.5469C7.48438 14.1406 8.65625 14.5 9.9375 14.625C11.25 14.7188 12.5781 14.5 13.9219 13.9688C14.3906 13.8125 14.8438 13.5781 15.2812 13.2656C14.875 13.9219 14.1562 14.4062 13.125 14.7188L13.9219 15.6562C14.4219 15.6562 14.875 15.5938 15.2812 15.4688C15.7188 15.3125 16.0625 15.1562 16.3125 15C16.5938 14.8125 16.8281 14.6406 17.0156 14.4844C17.2344 14.2969 17.375 14.1406 17.4375 14.0156L17.5781 13.8281Z" fill="white"/>
</svg>
