<svg width="275" height="192" viewBox="0 0 275 192" fill="none" xmlns="http://www.w3.org/2000/svg">
<path d="M95.0503 190.249C42.7303 190.249 0.147461 147.666 0.147461 95.3188C0.147461 42.9718 42.7303 0.416016 95.0503 0.416016C117.861 0.416016 139.911 8.63423 157.162 23.5518C159.114 25.2334 160.281 27.566 160.443 30.1155C160.633 32.6651 159.793 35.1604 158.111 37.0861C156.294 39.2017 153.636 40.3951 150.842 40.3951C148.537 40.3951 146.285 39.5543 144.549 38.0354C130.825 26.1285 113.223 19.5919 95.0232 19.5919C53.3354 19.6461 19.3776 53.6039 19.3776 95.3188C19.3776 137.034 53.3354 171.019 95.0774 171.019C102.455 171.019 109.724 169.961 116.721 167.872C117.616 167.601 118.539 167.466 119.461 167.466C123.665 167.466 127.462 170.286 128.683 174.328C130.201 179.4 127.299 184.77 122.227 186.289C113.412 188.92 104.299 190.249 95.0503 190.249Z" fill="black"/>
<path d="M274.089 140.749C274.089 154.582 268.99 167.086 259.714 176.009C249.407 185.936 234.273 191.198 215.91 191.198H140.455V118.156H62.802C57.7301 118.156 53.526 114.413 53.0649 109.477C52.7937 106.792 53.6888 104.079 55.5331 102.072C57.3503 100.065 59.927 98.9259 62.6393 98.9259H150.11C152.768 98.9259 155.155 100.011 156.918 101.747C158.654 103.483 159.739 105.896 159.739 108.554V171.995H215.965C245.8 171.995 254.75 151.219 254.75 135.704C254.75 119.187 239.263 99.4141 215.965 99.4141H200.613C200.505 99.4141 200.396 99.4141 200.288 99.4141C200.125 99.4141 199.962 99.387 199.827 99.387C199.637 99.3599 199.447 99.3599 199.257 99.3327C197.928 99.1429 196.68 98.6547 195.595 98.0037C195.351 97.841 195.107 97.7054 194.89 97.5426L194.863 97.5155C194.646 97.3528 194.429 97.1629 194.212 97.0002C193.832 96.6747 193.507 96.3221 193.182 95.9424C193.046 95.7796 192.91 95.5898 192.775 95.3999C192.693 95.2914 192.612 95.1829 192.531 95.0745C192.341 94.8032 192.178 94.5049 192.042 94.2065C191.988 94.098 191.907 93.9624 191.825 93.7726C191.635 93.3928 191.31 92.5791 191.12 91.4671C191.039 90.9518 190.985 90.4093 190.985 89.8669C190.985 87.019 192.232 84.4694 194.185 82.7064C194.348 82.5708 194.511 82.4081 194.7 82.2725C195.487 81.6758 196.355 81.1876 197.277 80.835C197.44 80.7807 197.575 80.7265 197.738 80.6722C197.874 80.618 198.036 80.5909 198.172 80.5366C198.335 80.4824 198.525 80.4552 198.715 80.401C198.959 80.3468 199.176 80.3196 199.447 80.2925C199.827 80.2383 200.206 80.2383 200.586 80.2383H215.504C224.834 80.2383 232.266 77.1734 237.636 71.1521C242.382 65.8089 245.095 58.2959 245.095 50.5388C245.095 37.2214 237.202 21.6258 215.015 21.6258H196.762C191.473 21.6258 187.16 17.3133 187.16 12.0243C187.16 6.73538 191.473 2.42285 196.762 2.42285H215.015C247.4 2.42285 264.325 26.6435 264.325 50.5659C264.325 63.178 259.931 75.0849 251.93 84.0355C250.221 85.9612 248.349 87.7242 246.369 89.2973C250.763 92.1723 254.832 95.6983 258.466 99.8481C268.393 111.131 274.089 126.049 274.089 140.749Z" fill="black"/>
<path d="M199.202 99.3339C197.873 99.144 196.626 98.683 195.541 98.0049C196.626 98.6558 197.873 99.1169 199.202 99.3339Z" fill="black"/>
</svg>
