<?xml version="1.0" encoding="utf-8"?>
<!-- Generator: Adobe Illustrator 23.1.1, SVG Export Plug-In . SVG Version: 6.00 Build 0)  -->
<svg version="1.1" id="Layer_2" xmlns="http://www.w3.org/2000/svg" xmlns:xlink="http://www.w3.org/1999/xlink" x="0px" y="0px"
	 viewBox="0 0 3544.3 526.2" style="enable-background:new 0 0 3544.3 526.2;" xml:space="preserve">
<style type="text/css">
	.st0{font-family:'Quicksand-Bold';}
	.st1{font-size:349.1067px;}
	.st2{font-family:'NotoSansArmenian-Bold';}
</style>
<g>
	<path d="M0,381.1V146.5C0,66.5,66.5,0,146.5,0s146.5,66.5,146.5,146.5v8.1h-61v-8.1c0-47.5-38-85.4-85.4-85.4S61,99,61,146.5v234.6
		c0,47.5,38,85.4,85.4,85.4s85.4-38,85.4-85.4v-86.8h-86.8v-61h146.5v146.5c0,81.4-66.5,146.5-146.5,146.5S0,461.1,0,381.1z"/>
	<path d="M351.3,8.1h149.2c78.7,0,145.1,65.1,145.1,145.1c0,50.2-29.8,89.5-63.7,112.6c33.9,23.1,63.7,61,63.7,112.6
		c0,78.7-65.1,145.1-145.1,145.1H351.3V8.1z M500.5,233.3c46.1,0,82.7-38,82.7-81.4c0-46.1-38-82.7-82.7-82.7h-88.2v165.5
		L500.5,233.3L500.5,233.3z M500.5,458.4c46.1,0,82.7-38,82.7-82.7c0-46.1-38-81.4-82.7-81.4h-88.2v164.1H500.5L500.5,458.4z"/>
</g>
<text transform="matrix(1 0 0 1 832.156 394.8325)"><tspan x="0" y="0" class="st0 st1">Genesis</tspan><tspan x="1274.9" y="0" class="st2 st1"> </tspan><tspan x="1365.7" y="0" class="st0 st1">Builders</tspan></text>
</svg>
