<svg width="250" height="229" viewBox="0 0 250 229" fill="none" xmlns="http://www.w3.org/2000/svg">
<path d="M17.1813 209.237H15.283V195.924H24.676V197.576H17.1813V209.237ZM16.9841 202.211H23.8378V203.838H16.9841V202.211Z" fill="black"/>
<path d="M43.0676 209.383C42.0568 209.383 41.12 209.21 40.2571 208.865C39.3942 208.52 38.63 208.051 38.0136 207.435C37.3726 206.819 36.8795 206.104 36.5344 205.29C36.1892 204.477 35.992 203.565 35.992 202.603C35.992 201.617 36.1646 200.729 36.5344 199.916C36.8795 199.102 37.3726 198.387 38.0136 197.771C38.6546 197.155 39.3942 196.686 40.2571 196.341C41.12 195.996 42.0568 195.823 43.0923 195.823C44.1031 195.823 45.0399 195.996 45.9028 196.316C46.7657 196.661 47.5053 197.13 48.1463 197.746C48.7873 198.363 49.2804 199.078 49.6255 199.891C49.9707 200.705 50.1432 201.617 50.1432 202.603C50.1432 203.589 49.9707 204.501 49.6255 205.315C49.2804 206.128 48.7873 206.868 48.1463 207.46C47.5053 208.076 46.7657 208.545 45.9028 208.89C45.0153 209.21 44.0784 209.383 43.0676 209.383ZM43.0676 207.682C43.8072 207.682 44.4729 207.558 45.1139 207.312C45.7302 207.065 46.2973 206.696 46.741 206.227C47.2095 205.759 47.5546 205.216 47.8258 204.6C48.097 203.984 48.2203 203.293 48.2203 202.578C48.2203 201.863 48.097 201.173 47.8258 200.557C47.5546 199.94 47.2095 199.398 46.741 198.93C46.2726 198.461 45.7302 198.116 45.1139 197.845C44.4975 197.598 43.8072 197.475 43.0676 197.475C42.328 197.475 41.6377 197.598 40.9967 197.845C40.3804 198.091 39.8133 198.461 39.3449 198.93C38.8765 199.398 38.5067 199.94 38.2602 200.557C37.989 201.173 37.8657 201.863 37.8657 202.578C37.8657 203.293 37.989 203.984 38.2602 204.6C38.5067 205.216 38.8765 205.759 39.3449 206.227C39.8133 206.696 40.3557 207.041 40.9967 207.312C41.6377 207.558 42.328 207.682 43.0676 207.682Z" fill="black"/>
<path d="M68.412 209.385C66.6616 209.385 65.281 208.892 64.2948 207.881C63.284 206.87 62.791 205.416 62.791 203.493V195.924H64.6893V203.419C64.6893 204.898 65.0098 205.983 65.6754 206.673C66.3164 207.363 67.2533 207.708 68.4367 207.708C69.6447 207.708 70.5569 207.363 71.2225 206.673C71.8635 205.983 72.2087 204.898 72.2087 203.419V195.924H74.0577V203.493C74.0577 205.416 73.5646 206.87 72.5785 207.881C71.543 208.892 70.1624 209.385 68.412 209.385Z" fill="black"/>
<path d="M87.7889 209.237V195.924H89.3421L98.1435 206.845H97.3299V195.924H99.2282V209.237H97.675L88.8737 198.315H89.6872V209.237H87.7889Z" fill="black"/>
<path d="M113.085 209.237V195.924H118.681C120.111 195.924 121.344 196.195 122.429 196.762C123.513 197.329 124.352 198.093 124.943 199.104C125.535 200.115 125.855 201.274 125.855 202.58C125.855 203.887 125.56 205.046 124.943 206.056C124.352 207.067 123.489 207.832 122.429 208.399C121.344 208.966 120.087 209.237 118.681 209.237H113.085ZM115.008 207.585H118.607C119.717 207.585 120.654 207.388 121.467 206.969C122.281 206.55 122.897 205.958 123.341 205.218C123.785 204.454 124.006 203.591 124.006 202.605C124.006 201.594 123.785 200.731 123.341 199.992C122.897 199.252 122.281 198.66 121.467 198.241C120.654 197.822 119.717 197.625 118.607 197.625H115.008V207.585Z" fill="black"/>
<path d="M136.456 209.237L142.471 195.924H144.345L150.385 209.212H148.388L143.014 196.984H143.778L138.404 209.237H136.456ZM139.02 205.909L139.538 204.38H147.032L147.575 205.909H139.02Z" fill="black"/>
<path d="M164.216 209.237V197.6H159.656V195.924H170.651V197.576H166.09V209.237H164.216Z" fill="black"/>
<path d="M182.608 209.237V195.924H184.507V209.237H182.608Z" fill="black"/>
<path d="M204.377 209.383C203.366 209.383 202.43 209.21 201.567 208.865C200.704 208.52 199.94 208.051 199.323 207.435C198.682 206.819 198.189 206.104 197.844 205.29C197.499 204.477 197.302 203.565 197.302 202.603C197.302 201.617 197.474 200.729 197.844 199.916C198.189 199.102 198.682 198.387 199.323 197.771C199.964 197.155 200.704 196.686 201.567 196.341C202.43 195.996 203.367 195.823 204.402 195.823C205.413 195.823 206.35 195.996 207.212 196.316C208.075 196.661 208.815 197.13 209.456 197.746C210.097 198.363 210.59 199.078 210.935 199.891C211.28 200.705 211.453 201.617 211.453 202.603C211.453 203.589 211.28 204.501 210.935 205.315C210.59 206.128 210.097 206.868 209.456 207.46C208.815 208.076 208.075 208.545 207.212 208.89C206.325 209.21 205.388 209.383 204.377 209.383ZM204.377 207.682C205.117 207.682 205.783 207.558 206.424 207.312C207.04 207.065 207.607 206.696 208.051 206.227C208.519 205.759 208.864 205.216 209.135 204.6C209.407 203.984 209.53 203.293 209.53 202.578C209.53 201.863 209.407 201.173 209.135 200.557C208.864 199.94 208.519 199.398 208.051 198.93C207.582 198.461 207.04 198.116 206.424 197.845C205.807 197.598 205.117 197.475 204.377 197.475C203.638 197.475 202.947 197.598 202.306 197.845C201.69 198.091 201.123 198.461 200.655 198.93C200.186 199.398 199.816 199.94 199.57 200.557C199.323 201.173 199.175 201.863 199.175 202.578C199.175 203.293 199.299 203.984 199.57 204.6C199.841 205.216 200.186 205.759 200.655 206.227C201.123 206.696 201.665 207.041 202.306 207.312C202.947 207.558 203.638 207.682 204.377 207.682Z" fill="black"/>
<path d="M224.224 209.237V195.924H225.777L234.579 206.845H233.765V195.924H235.663V209.237H234.11L225.309 198.315H226.122V209.237H224.224Z" fill="black"/>
<path d="M32.468 226.464H218.456" stroke="black" stroke-width="4.13515" stroke-miterlimit="10"/>
<path d="M87.2243 172.745C39.6673 172.745 0.960938 134.038 0.960938 86.4567C0.960938 38.875 39.6673 0.193359 87.2243 0.193359C107.958 0.193359 128.001 7.66343 143.681 21.223C145.456 22.7515 146.516 24.8717 146.664 27.1892C146.837 29.5066 146.073 31.7748 144.544 33.5252C142.892 35.4482 140.476 36.5329 137.937 36.5329C135.841 36.5329 133.795 35.7687 132.217 34.3881C119.743 23.5651 103.742 17.6235 87.1996 17.6235C49.3069 17.6728 18.4404 48.5393 18.4404 86.4567C18.4404 124.374 49.3069 155.265 87.2489 155.265C93.9547 155.265 100.562 154.304 106.923 152.405C107.736 152.159 108.574 152.036 109.413 152.036C113.234 152.036 116.685 154.6 117.795 158.273C119.175 162.883 116.538 167.765 111.927 169.145C103.915 171.537 95.6312 172.745 87.2243 172.745Z" fill="black"/>
<path d="M249.963 127.751C249.963 140.324 245.328 151.689 236.896 159.8C227.528 168.824 213.771 173.606 197.08 173.606H128.494V107.214H57.9103C53.3 107.214 49.4787 103.812 49.0596 99.3248C48.8131 96.8841 49.6266 94.4187 51.3031 92.5943C52.9549 90.77 55.297 89.7345 57.7624 89.7345H137.271C139.687 89.7345 141.856 90.7207 143.459 92.2985C145.036 93.8763 146.023 96.0705 146.023 98.4866V156.152H197.13C224.249 156.152 232.385 137.267 232.385 123.165C232.385 108.151 218.307 90.1783 197.13 90.1783H183.176C183.077 90.1783 182.979 90.1783 182.88 90.1783C182.732 90.1783 182.584 90.1536 182.461 90.1536C182.288 90.129 182.116 90.129 181.943 90.1043C180.735 89.9317 179.601 89.488 178.615 88.8963C178.393 88.7484 178.171 88.6251 177.974 88.4772L177.949 88.4525C177.752 88.3046 177.555 88.132 177.357 87.9841C177.012 87.6882 176.716 87.3677 176.421 87.0226C176.297 86.8747 176.174 86.7021 176.051 86.5295C175.977 86.4309 175.903 86.3323 175.829 86.2337C175.656 85.9871 175.508 85.716 175.385 85.4448C175.336 85.3461 175.262 85.2229 175.188 85.0503C175.015 84.7051 174.72 83.9655 174.547 82.9547C174.473 82.4863 174.424 81.9932 174.424 81.5002C174.424 78.9115 175.558 76.5941 177.333 74.9916C177.481 74.8683 177.629 74.7204 177.801 74.5971C178.516 74.0547 179.305 73.611 180.143 73.2905C180.291 73.2412 180.415 73.1919 180.562 73.1426C180.686 73.0932 180.834 73.0686 180.957 73.0193C181.105 72.97 181.277 72.9453 181.45 72.896C181.672 72.8467 181.869 72.8221 182.116 72.7974C182.461 72.7481 182.806 72.7481 183.151 72.7481H196.711C205.192 72.7481 211.947 69.9622 216.828 64.4891C221.142 59.6323 223.608 52.8032 223.608 45.7523C223.608 33.6473 216.434 19.4714 196.267 19.4714H179.675C174.867 19.4714 170.948 15.5515 170.948 10.744C170.948 5.93654 174.867 2.0166 179.675 2.0166H196.267C225.703 2.0166 241.087 24.0324 241.087 45.7769C241.087 57.2409 237.093 68.0639 229.821 76.1996C228.267 77.95 226.566 79.5525 224.767 80.9824C228.76 83.5957 232.459 86.8007 235.762 90.5727C244.785 100.829 249.963 114.388 249.963 127.751Z" fill="black"/>
<path d="M181.894 90.1035C180.685 89.931 179.551 89.5119 178.565 88.8955C179.551 89.4872 180.685 89.9063 181.894 90.1035Z" fill="black"/>
</svg>
